<svg version="1.2" xmlns="http://www.w3.org/2000/svg" viewBox="0 0 1024 576" width="1024" height="576">
	<title>fondo-svg</title>
	<style>
		.s0 { fill: #6b6d6e } 
		.s1 { fill: #c2c3c6 } 
		.s2 { fill: #151515 } 
	</style>
	<path id="Layer" class="s0" d="m933.6 135.3l-0.9 1.6z"/>
	<path id="Layer" class="s1" d="m588.4 210.4l6.9-6.9c-15.3 3.9-31 20.3-45.2 27.9 5.5-6.8 11.2-13.3 18-19.5-9.6 2.1-18.4 10.5-27.2 15.2-15.9 8.6-32.9 16-48.3 25.2-11.4 6.9-20.8 15.1-32.8 21.3l0.4-2.5c-6.7 3.5-14.6 6.3-21 10.2-9.6 6-17.6 14.6-25.5 21.8 5.1-7.6 11-14.5 18.9-21-7.2 2.1-12.6 8.6-17.6 13.3-10.5 10-19.6 20.4-29.9 30.4l5.1-7.1c-3.2 1.7-5 3.6-7.4 6.1 5.6-9.7 11.7-18.2 21.2-26.8-14.5 4.2-25.7 19.3-39.2 25.9-1 2.5-1.9 4-3.7 6.4 1.1-1.9 1.4-2.5 1.4-4l-12.4 16.5-1-1.7-5 7.1 1.8-10c-3.4 3.3-5.9 6.7-8.8 10.2l1-5c-3.1 2.8-5.4 5.5-7.9 8.6l-2.7-8.7c-1.6 6.6-2.2 11.9-6 18.8-2.3-8.5-11.8-10.8-24.4-6.5 3.9 0.4 9.6-0.4 12.2 1.6 5.4 4-4.4 14.5-10.9 18 0.7-2 0.8-1.8 0-3.4l-9.2 2.5c-0.9 2.1-1.3 2.8-2.8 4.9 3.4 1.3 4.9 2.9 6.5 5.6-3.7 2.4-5 3.8-6.9 7-3.7-3.8-4.6-8.8-8.3-12.6-2.6 6.4 2.3 15.2 6.4 19.2-2.2-0.2-2.9-0.2-5.1 0.3l4.2 4.7c-6.3 3-10.8 3.7-17.1 4.3 3.6 1.4 7.2 1.7 11.5 1.9-27 19.7-58.5 34.9-85.7 54.6-4.6 3.4-9.2 7-14 10.2-3.3 2.2-7.6 3.9-10.1 6.8-4.5 5.1-0.4 9.3 6.4 6.2 13.1-6.1 25-16 36.6-24-4.6 1-8.6 3.3-12.9 5.5 30.1-26 68.7-44.1 102.7-65.9 57.3-36.6 116.9-69.3 176.6-102.4 57.6-31.9 117.6-62 178.5-85.6-9 6.9-21.9 10.6-32.3 15.6-17.1 8.3-32.8 17.7-49 27.4-7.2 4.3-14.7 7.5-21.5 12.5 5.2-0.6 9.7-2.8 14.7-5.4-10.1 7.9-24 13.3-35.5 19.5-10.4 5.7-20.1 13.3-30.7 18.5-13 6.4-27.4 11-40.6 16.4-10.9 4.5-21.6 11-31.5 17.2 9-0.3 17.9-5.9 27-8.9 10.3-3.4 19.9-4.5 30.2-9.4-1.7 2-1.6 1.7-1.9 3.2l38.7-6.5-6.9 3.5c7.1 0.4 15.3-1.9 22.9-3.1 16.9-2.5 31.2-3.6 48.1-12.2-15.4-0.5-33.9 3.3-50.1 4.9-7.1 0.7-15 2.9-19.5-0.4 13.6-4.7 28.1-9 41.6-11.1 16-2.4 32.5-3.1 48.8-7.4 9.1-2.4 18-8.8 26.8-12.6 10.5-4.5 20.8-9.6 31.3-14 10.7-4.4 21.6-7.6 32.2-12.4-26.4 0.4-55.9 6.4-81.6 5 21.9-7.4 45-7.6 65.6-8.7 9.1-0.4 19.4 1.5 28.9-1.9-9.6-2.5-21.1-2-29.5-6.1l5.1-3.8c-5.8 0.4-10.4 1.3-15.7 0.3 29.2-6.1 60.4-1.4 89.9-16.2-4.1-0.8-8.5-0.9-12.9-1.2 9.2-1.3 17.4-1.5 26.7-5.9-1.3-0.9-2-1-4.1-1.2 8.1-2.8 15.6-4.8 23.5-8.8-2.6-0.3-4.1-0.3-6.9 0.2 6.5-2.8 13.1-3.2 19.8-5.8-9.6-0.8-20.1 0.1-30-0.3 14.7-3.2 28.4-2.5 43-5.1 14.5-2.6 28.7-9.7 42.6-15.9 9-4 17-6.7 25-12.6 2.1 2.6 7 0.1 11.4-1.7 9.8-3.9 18.9-8.3 28.3-13.2 4.4-2.3 9.1-4.7 7.6-8.5-2.4-5.9-13-8.2-20.4-9.6-19.2-3.7-42.5-2.7-64.7 0.5-10.7 1.6-21.2 1.6-31.7 3.3-13.8 2.3-28.2 6.8-42.1 10-61.9 14-130 34.1-187.9 67.3z"/>
	<path id="Layer" fill-rule="evenodd" class="s0" d="m913.7 154.6l15.3-7.9c-4.1 3.7-9.9 6.7-15.3 7.9zm-10.1 4.1l4.2-2.1c-1.9 1.7-1.7 1.6-4.2 2.1zm-25.8-26.1l6.9-3.5c-2.4 2.2-3.7 2.8-6.9 3.5zm15.7 30.2l4.1-2.1c-1.8 1.7-1.7 1.6-4.1 2.1zm-4.8 2.1c-0.8 0 0.7-0.8 0.8-0.7 0.8 0-0.7 0.7-0.8 0.7zm-12.8 4.8c4.3-2.3 8.1-4.7 12-7.4-2.9 4-6.8 6.2-12 7.4zm-10.1 4.1l5.5-2.9c-2.1 1.9-2.7 2.3-5.5 2.9zm-14.4 7.1c-0.9-0.1 0.6-0.8 0.7-0.8 0.9 0.1-0.6 0.8-0.7 0.8zm-19.7-22.1c-11.7 3.7-23.5 6.1-35.2 9.9-16.3 5.3-33.8 13.1-49.6 12.6 27.4-11.4 55.9-15.8 83.5-25.2zm8.2 26.1l4.2-2.1c-1.9 1.7-1.7 1.6-4.2 2.1zm-7.4 2.7l4.2-2.1c-1.8 1.7-1.7 1.6-4.2 2.1zm-44.3-47.2c-0.8-0.1 0.7-0.8 0.8-0.8 0.8 0.1-0.7 0.8-0.8 0.8zm-7.8 1.8c-0.8-0.1 0.6-0.8 0.7-0.8 0.9 0.1-0.6 0.8-0.7 0.8zm7 63.2c2.5-1.5 4.2-2.7 6.4-4.5-2.9 0.4-4.3 0.5-6.9 0.2 5.3-1.6 10.4-2.4 15.7-3.6-4.1 3.7-9.9 6.7-15.2 7.9zm-10.2-9.4l6-2c-2.4 2.4-2.8 2.2-6 2zm5.4 11.5c-0.8-0.1 0.7-0.8 0.8-0.8 0.8 0.1-0.7 0.8-0.8 0.8zm-40.8-56.2l4.2-2.2c-1.9 1.7-1.7 1.7-4.2 2.2zm31.3 60.4c0-1.9-0.2-1.6 1.8-3.3 0 1.9 0.2 1.6-1.8 3.3zm157.6-78.3l-0.9 1.6zm-2.3-1.1l-0.9 1.7zm-4.2-1.3l-0.9 1.6zm-2.3-1l-0.9 1.6zm-6-1.4l-0.9 1.6zm-1.9-0.2l-0.9 1.6zm-1.8-0.2l-0.9 1.6zm-14.8-1.3l-0.9 1.6zm-3.2 0.5l-1 1.6zm-2.3-1.1l-0.9 1.7zm-1.8-0.2l-1 1.6zm-5 0.4l-0.9 1.6zm-1.9-0.2l-0.9 1.6zm-1.9-0.2l-0.9 1.6zm-5 0.4l-1 1.6zm-1.8-0.2l-0.9 1.6zm-5.1 0.4l-0.9 1.6zm-5.1 0.4l-0.9 1.6zm-5.1 0.4l-0.9 1.6zm-3.2 0.5l-1 1.6zm-3.2 0.6l-0.9 1.6zm-3.2 0.5l-1 1.6zm-3.2 0.5l-0.9 1.7zm-1.9-0.2l-0.9 1.6zm-3.2 0.5l-0.9 1.6zm21.1 44.3l-0.9 1.6zm-24.4-43.7l-0.9 1.6zm20.2 45.8l-0.9 1.6zm-24.8-44.6l-1 1.7zm-3.2 0.5l-0.9 1.6zm-1.8-0.2l-1 1.6zm-2.3-1l-0.9 1.6zm-3.2 0.5l-0.9 1.6zm-6.5 1.1l-0.9 1.6zm-3.2 0.6l-1 1.6zm-4.6 1.2l-0.9 1.6zm-3.2 0.6l-0.9 1.6zm25.2 52.2l-0.9 1.6zm-29.9-51l-0.9 1.6zm-3.2 0.6l-1 1.6zm27.2 52.4l-0.9 1.6zm-3.3 0.5l-0.9 1.6zm-28.5-51.6l-0.9 1.6zm25.3 52.2l-1 1.6zm-5 0.4l-1 1.6zm-28-50.8l-0.9 1.6zm24.8 51.3l-0.9 1.6zm-5.1 0.4l-0.9 1.6zm0 3.4l-1 1.6zm-28.9-52.6l-0.9 1.6zm27.1 52.4l-0.9 1.6zm-3.3-2.8l-0.9 1.6zm-27.1-49l-0.9 1.6zm27.1 52.4l-0.9 1.6zm-1.9-0.2l-0.9 1.6zm-28.5-51.7l-0.9 1.6zm25.3 48.9l-1 1.6zm-28.5-48.3l-0.9 1.6zm25.3 48.8l-0.9 1.6zm-1.9-0.1l-0.9 1.6zm1.4 2.6l-1 1.6zm-1.8-0.1l-0.9 1.6zm-27.6-49.9l-0.9 1.6zm24.8 47.9l-0.9 1.6zm-28.1-47.4l-0.9 1.6zm-4.6 1.3l-0.9 1.6zm-4.6 1.2l-1 1.6zm30.4 58.7l-0.9 1.6zm-3.7 3l-1 1.6z"/>
	<path id="Layer" class="s2" d="m772.9 209.9c-0.1 0-1.6 0.7-0.8 0.8 0.1 0 1.6-0.7 0.8-0.8z"/>
	<path id="Layer" fill-rule="evenodd" class="s0" d="m739.9 151.9c-0.8-0.1 0.7-0.8 0.8-0.8 0.8 0.1-0.7 0.8-0.8 0.8zm22.7 59.6l7.8-1.8c-3.2 2-4.6 2-7.8 1.8zm-27.3-58.4c-0.8 0 0.7-0.7 0.8-0.7 0.8 0-0.7 0.8-0.8 0.7zm-10.6 3.3c-0.8-0.1 0.7-0.8 0.8-0.8 0.8 0.1-0.7 0.8-0.8 0.8zm23.6 61.3c3.1-0.8 4.9-0.2 7.8-1.8-3.1 2.8-4.4 2.4-7.8 1.8zm4.6 5.5l5.5-2.8c-2.1 1.9-2.8 2.2-5.5 2.8zm14.7-8.7l-0.9 1.6zm-3.2 0.5l-0.9 1.6zm-33.6-61.4l-0.9 1.6zm30.3 62l-0.9 1.6zm0.9 1.8l-0.9 1.6zm-2.8-2l-0.9 1.6z"/>
	<path id="Layer" class="s2" d="m754.7 216.7l-0.9 1.6z"/>
	<path id="Layer" fill-rule="evenodd" class="s0" d="m750.9 223.9c-0.8-0.1 0.6-0.8 0.7-0.8 0.9 0.1-0.6 0.8-0.7 0.8zm-4.6 1.3c-0.9-0.1 0.6-0.8 0.7-0.8 0.9 0.1-0.6 0.8-0.7 0.8zm-48.8-60.4c-0.8 0 0.7-0.8 0.8-0.7 0.8 0-0.7 0.7-0.8 0.7zm-12 4c-0.8-0.1 0.7-0.8 0.8-0.8 0.8 0.1-0.7 0.8-0.8 0.8zm-8.6 2.6l4.2-2.2c-1.9 1.7-1.7 1.7-4.2 2.2zm34.3 74.2c-0.8-0.1 0.7-0.8 0.8-0.8 0.8 0.1-0.7 0.8-0.8 0.8zm-41.7-71.5l4.2-2.2c-1.8 1.7-1.7 1.7-4.2 2.2zm-4.7 2c-0.9 0 0.6-0.7 0.7-0.7 0.9 0-0.6 0.8-0.7 0.7zm-7.4 2.7c-0.8 0 0.7-0.7 0.8-0.7 0.8 0-0.7 0.7-0.8 0.7zm62.8-22l-0.9 1.6zm-6 2l-0.9 1.6zm-4.6 1.3l-0.9 1.6zm-6 1.9l-1 1.6zm33.2 64l-1 1.6zm-3.2 0.5l-0.9 1.6zm-6.5 1.1l-0.9 1.6zm-3.2 0.6l-0.9 1.6zm-8.3 0.9l-1 1.6zm-3.2 0.5l-0.9 1.6zm-1.9-0.1l-0.9 1.6zm-3.2 0.5l-0.9 1.6zm-3.3 0.6l-0.9 1.6zm-3.2 0.5l-0.9 1.6zm5.9 14.9l-0.9 1.6zm-3.7-3.7l-0.9 1.6zm-7.3-10.8l-1 1.6zm5.6 10.7l-1 1.6zm1.9 3.5l-1 1.6zm-3.6-3.7l-1 1.6zm1.9 3.5l-0.9 1.7zm-8.8-13.5l-0.9 1.6zm5.1 9.7l-1 1.6zm1.9 3.6l-1 1.6zm-3.6-3.7l-1 1.6zm1.9 3.5l-0.9 1.6zm-3.7-3.7l-0.9 1.6zm1.8 3.6l-0.9 1.6zm-8.3-12.6l-0.9 1.6zm4.6 8.8l-1 1.7z"/>
	<path id="Layer" class="s2" d="m686.1 233.1c-4.5 0.2-8.3 0.7-12.9 2.1 4.3 0.9 8 0.8 12.9-2.1z"/>
	<path id="Layer" fill-rule="evenodd" class="s0" d="m682.8 240.4l-0.9-1.8 2.8-1.4c0 1.8 0.1 1.5-1.9 3.2zm8.1 13.4c-0.8-0.1 0.7-0.8 0.8-0.8 0.8 0.1-0.7 0.8-0.8 0.8zm-10.5-17c-0.9-0.1 0.6-0.8 0.7-0.8 0.9 0.1-0.6 0.8-0.7 0.8zm-7.9-1.6c-0.8-0.1 0.7-0.8 0.8-0.8 0.8 0.1-0.7 0.8-0.8 0.8zm9.7 22c-0.8-0.1 0.7-0.8 0.8-0.8 0.8 0.1-0.7 0.8-0.8 0.8zm-42.3-71.5c-0.8-0.1 0.6-0.8 0.7-0.8 0.9 0.1-0.6 0.8-0.7 0.8zm-16.5 45c-16.7 7.7-31.9 17.2-47.6 26.6-7.9 4.7-16 7.7-22.5 14.1 4.9-2 9.9-4.4 14.8-5.4-12.8 6.6-26.5 12.8-38.7 20.2-9 5.5-18.4 12.7-27.9 17.1-23.3 10.8-52.1 17.3-71.7 34.3 18.8-6.5 38.1-14.9 57.1-18.3-2.6 3 4.3 0.4 6.9-0.2 8.8-2.3 22.9-4.9 30-3.1-2.7 1.1-4.5 2-6.9 3.5 13.5-3.7 32.4-7.9 44.2-6-13.1 8.7-29.4 14.1-41.9 24 7.7-4 16.2-9.5 24.4-10.4-14.4 6.5-27.7 14-41.9 20.8-4.9 2.3-8.7 5.7-13.9 6.9l5.1-3.7c-13.1 7.6-19.7 8-30.9 4.7 3-1.6 5.2-3.1 7.8-5.2-15 4.8-36.7 13.3-50.2 11.4l11.1-5.7c-2.2-0.5-4.2-0.6-6-1.4 10.4-5.1 19.2-6.4 27.6-14.3-5.1 1.7-9.5 3-14.2 2.8 6.7-3 12.5-4.2 17.9-9.3-9.9 3.1-19.6 7.2-29.5 10.8 1.2 4.4-7.7 5.7-12.2 6.8-7.6 1.8-13.3 4.9-20.6 7.6-7.5 2.8-12.2 2.4-18.8 7.8 4.6-2.1 8-3 12.5-3-13.5 6.5-31.9 12.3-43.4 21.3 17.4-7.2 34.6-10.9 51.6-12.1 3.7 4.7 15.8 1.2 22.6 2.9-9.3 3.6-18.1 3.5-27.3 4.9-3.9 0.6-8.1 2.3-11.9 2.5-3.3 0.2-11.1-2.1-13.8 2-2.5 4.1 8.9 4.6 11.5 5.4-7.3 2.9-12.6 1.3-19.7 2.8-5.5 1.2-10.6 4.4-16.2 5.6l3.2 2.9-6.5 1.1 5.1 3c-4.1 0.9-6.7 1.3-10.1 4.1-2.8 0.5-3.4 0.6-6 2 3.6 1 6.4 2.3 9.2 4.2-1.5 1.5-1.2 1.6-1.9 3.2-2.1-1.6-3.7-2.6-6.9-3.2 1.3 1.9 1.6 2.7 1 5.2-2.2-3.5-5.3-6.2-8.3-9.2l-3.7 3-8.3-2.5c0.8 4 2.6 6.7 5 9.8-3 0.6-3.2 0.5-5.5-0.5l-2.7 1.4 0.4 4.3c2.5-1.3 2.1-1.1 4.6-1.3l-1.4 4.1c-1.6 0.4-2.3 0.5-3.2 0.5 0.2-2.9-1.2-3.2-4.1-4.5 0.3 1.4 0.3 1.7 0 3.3l-1-5.1c8.2-0.5 1.8-10.2 0.5-12.6l-2.7 1.4c0.7 1.8 1.1 3 0.9 5.1l-1-1.7c-2.3 4-3 8.4-7.3 12.8 1.9-6.2 2.8-9.9-1.9-13.7l-2.3 2.3c-8.6-0.5-19 7.2-26.9 12.4-7.8 5.1-16 10.1-23.5 15.5-11.5 8-24.2 18.3-38.1 21.3 23.5-14.7 45.6-31 69.3-45.7 10.1-6.2 21-11.5 31.1-17.7 27.1-16.5 53.7-33.8 81.3-49.7 32-18.4 64.5-35.7 96.8-53.6 41.4-22.9 83.5-44.4 126.7-63.5 17.8-7.9 34.7-16.9 53.1-22.8-7.6 6.9-22.7 11.2-32.3 15.7zm-318.6 200.9l-1.8-0.2c0.8 0.1 1.3 0.1 1.8 0.1q0 0 0 0.1zm367.4-171.1l4.2-2.1c-1.9 1.7-1.7 1.6-4.2 2.1zm-42.3-71.6l4.1-2.1c-1.8 1.7-1.6 1.7-4.1 2.1zm32.2 75.7l6.9-3.6c-2.4 2.2-3.7 2.9-6.9 3.6zm0.4-5.8c-10.9 3-25 3.8-34.1 1.8 11.4-2.7 22.1-2 33.2-3.6zm-45.5-64.3l5.5-2.8c-2.1 1.9-2.8 2.2-5.5 2.8zm35.4 61.6c-7.2 1.5-14 2.4-20.3 1.5 6.6-1.8 12.9-2.3 19.4-3.2zm-19 21l4.2-2.1c-1.8 1.7-1.7 1.6-4.2 2.1zm-38.1-73.7l-0.9-1.8 2.7-1.4c0 1.8 0.2 1.6-1.8 3.2zm21.6 51.9l4.1-2.2c-1.8 1.8-1.7 1.7-4.1 2.2zm-29-45.8c2.5-1.5 4.3-2.4 6.9-3.6-2.4 2.2-3.7 2.9-6.9 3.6zm-5.5-0.5l6.9-3.6c-2.4 2.2-3.7 2.9-6.9 3.6zm-20.8 4l8.3-4.3c-2.6 2.8-4.4 3.6-8.3 4.3zm44 79.3c-0.8-0.1 0.7-0.8 0.8-0.8 0.8 0.1-0.7 0.8-0.8 0.8zm-41.4-69.8c-0.8-0.1 0.7-0.8 0.8-0.8 0.8 0.1-0.7 0.8-0.8 0.8zm37.7 72.8c-0.8-0.1 0.7-0.8 0.8-0.8 0.8 0.1-0.7 0.8-0.8 0.8zm-50.9-75.7l5.6-2.9c-2.1 1.9-2.8 2.2-5.6 2.9zm-7.8 5.2l5.5-2.9c-2.1 1.9-2.7 2.2-5.5 2.9zm41.4 79.9c2.2-1.4 3.1-1.9 5.5-2.9-2.1 1.9-2.8 2.2-5.5 2.9zm-36-71.8c-0.9-0.1 0.6-0.8 0.7-0.8 0.8 0.1-0.6 0.8-0.7 0.8zm-44.1 11.9l26.2-13.6c-5.7 5.2-18.6 11.9-26.2 13.6zm57 69.6l3.3-0.6c-1.7 1.3-1.4 1-3.3 0.6zm128.7-73.4l-1 1.6zm2.3 4.4l-0.9 1.7zm-7.8-11.8l-0.9 1.6zm5.9 11.6l-0.9 1.6zm-4.6-5.5l-0.9 1.6zm5.5 10.6l-0.9 1.7zm-11.1-18l-0.9 1.6zm5.1 13.2l-0.9 1.6zm-35.5-65l-0.9 1.6zm27.2 52.4l-1 1.6zm1.4 2.6l-0.9 1.6zm5 9.8l-0.9 1.6zm2.8 5.3l-0.9 1.7zm-9.7-15.3l-0.9 1.6zm-1.9-0.2l-0.9 1.6zm3.7 10.5l-0.9 1.6zm2.7 5.3l-0.9 1.6zm-3.2 0.6l-1 1.6zm-4.6-5.5l-0.9 1.6zm2.8 5.3l-0.9 1.6zm-7.9-4.9l-0.9 1.6zm2.8 5.3l-1 1.6zm-1.8-0.2l-0.9 1.6zm-4.2-4.6l-0.9 1.6zm-1.8-0.1l-1 1.6zm2.8 5.3l-0.9 1.6zm-1.9-0.2l-0.9 1.6zm-6-4.8l-0.9 1.6zm0.9 5.2l-0.9 1.6zm-2.8-5.3l-0.9 1.6zm0.9 5.1l-0.9 1.6zm-4.1-4.6l-1 1.6zm1 5.2l-1 1.6zm-1.8-0.2l-0.9 1.6zm-4.2-4.6l-0.9 1.6zm-3.2 0.6l-0.9 1.6zm2.3 4.4l-1 1.6zm-5.5-3.9l-0.9 1.6zm10.1 19.6l-0.9 1.6zm-9.7-15.3l-0.9 1.6zm-3.7-3.7l-0.9 1.6zm-1.4 4.1l-0.9 1.6zm-3.2 0.5l-1 1.6zm-5-3l-1 1.6zm0 3.4l-0.9 1.6zm-3.2-2.8l-0.9 1.6zm-1.9 3.2l-0.9 1.6zm-46.5-42.4l-0.9 1.6zm-6.5 4.5l-0.9 1.6zm37.2 71.9l-0.9 1.6zm-41.4-76.5l-0.9 1.6zm39.6 76.4l-1 1.6zm-41.8-74.1l-0.9 1.6zm38.6 74.6l-0.9 1.6zm-41-72.3l-0.9 1.6zm37.7 72.9l-0.9 1.6zm-40-70.5l-0.9 1.6zm36.7 71l-0.9 1.6zm-39.1-68.7l-0.9 1.6zm35.9 69.3l-1 1.6zm-3.2 0.5l-0.9 1.6zm-35.9-65.9l-0.9 1.6zm32.7 66.5l-1 1.6zm-35.8-62.5l-1 1.6zm32.7 63l-0.9 1.6zm1.3 9.4l-0.9 1.7zm-3.2 0.5l-0.9 1.6zm-9.7-8.5l-0.9 1.6zm4.6 8.9l-1 1.6zm-7.8-8.4l-0.9 1.6zm4.6 8.9l-0.9 1.6zm-7.9-8.3l-0.9 1.6zm4.6 8.9l-0.9 1.6zm-6.4-9.1l-1 1.6zm-3.2 0.6l-0.9 1.6zm4.6 8.9l-0.9 1.6zm-7.9-8.4l-0.9 1.6zm4.6 8.9l-0.9 1.6zm3.2 6.2l-0.9 1.6zm-5.1-6.3l-0.9 1.6zm-6-8.2l-0.9 1.6z"/>
	<path id="Layer" class="s1" d="m563.4 314.6c-15.7 3.4-30.2 14.5-44.7 22 9.8-2.1 21.5-10.1 30.9-14.9 4.6-2.3 9.9-4 13.8-7.1z"/>
	<path id="Layer" fill-rule="evenodd" class="s0" d="m559.3 316.7l-5.6 2.9c2.8-0.6 3.5-1 5.6-2.9zm-26.8-10.9l-11.7 3.9c3.4 1.1 8.1 0 11.7-3.9zm-11.7 3.9q-0.1 0-0.1-0.1l-0.1 0.1zm6.2-4.4c-3.3 0.4-5.8 1.2-9.2 2.6 0.8 0.8 1.8 1.4 2.9 1.8zm29.9 0.3l-0.9 1.6zm-7.3-7.5l-1 1.6zm2.3 7.9l-0.9 1.6zm-5.5-7.3l-0.9 1.6zm2.3 7.8l-1 1.6zm-6.9-6.6l-0.9 1.7zm1.8 6.9l-0.9 1.6zm-6.4-5.7l-0.9 1.6zm3.2 6.2l-1 1.6zm-1.8-0.1l-0.9 1.6zm-3.2 0.5l-1 1.6z"/>
	<path id="Layer" class="s1" d="m529.3 306.3c-3.4 0.6-5.8 1.3-9.2 2.5 3.6 0 5.9-0.2 9.2-2.5z"/>
	<path id="Layer" fill-rule="evenodd" class="s0" d="m509.5 345.9c7.9-4.2 15.3-8.5 23.5-12.2-5.4 4.9-16.5 10.6-23.5 12.2zm-23.9-90.1l4.2-2.2c-1.9 1.7-1.7 1.7-4.2 2.2zm-3.8 3.8c-0.9 0 0.6-0.8 0.7-0.7 0.9 0-0.6 0.7-0.7 0.7z"/>
	<path id="Layer" class="s1" d="m521.5 338.6l-26.8 12.7c8.3-1.7 20.4-7 26.8-12.7z"/>
	<path id="Layer" fill-rule="evenodd" class="s0" d="m476.7 263.4c-0.8-0.1 0.7-0.8 0.8-0.8 0.8 0.1-0.7 0.8-0.8 0.8zm-5.1 3.7c-0.8 0 0.7-0.7 0.8-0.7 0.8 0-0.7 0.7-0.8 0.7zm25 84.3l6.9-3.5c-2.5 2.2-3.8 2.8-6.9 3.5zm-36.8-77.8l0.9-1.6c-5.3 0.6-12.2 6.5-16.1 6.1l16.6-8.6c0.4 2.2 0.6 2-1.4 4.1z"/>
	<path id="Layer" class="s1" d="m491.1 330.6c-11.4 1.5-24.3 4-35.5 9.4 8.6-0.8 28.2-3.3 35.5-9.4zm1.8 20.5l-6.9 3.6c3.1-0.7 4.4-1.4 6.9-3.6z"/>
	<path id="Layer" class="s0" d="m444.1 277.2l-4.1 2.2c2.4-0.5 2.3-0.4 4.1-2.2z"/>
	<path id="Layer" class="s1" d="m478.6 357.4c-6.2 0.7-11.1-0.9-16.6-1.6l8.3-4.3c-6.6 0-13.5 2.9-20.4 4.7-10.1 2.7-19.8 4.5-29.8 6.7 3.4-2.7 6.6-4.6 10.6-6.6-1.8-0.9-3.8-1-6-1.4 10.5-4.8 18.6-6.7 28.1-13.5-4.7 0.2-9.3 1.6-14.3 2.9 6.1-3.9 13-4.7 17.5-10.2-9.6 2.4-20 6.8-29.5 10.8 1.9 3.5-5.3 4.8-9.3 5.8-8.8 2-15.1 5.8-23.5 8.6-7.4 2.4-11.8 3.1-19.3 6.9q6.2-0.9 12.5-3c-13 8.8-29.2 14-43.3 21.3 8.6-0.8 17.2-5.2 26-7.3 8.8-2.1 17.3-2.3 26-3.9 3.2 5.1 15.2 2.3 22.6 2.9-8.9 2.7-17.2 2.9-25.9 4.2-4 0.6-8.2 2.3-12.2 2.6-3.8 0.3-7.2-1.1-11.3-0.2-3.7 0.9-6.2 4.3-3.8 6 2.7 1.8 8 1.7 11.7 2.2-6.7 2.1-11.9 0.9-18.5 2.1-5.7 1.1-11.6 4.5-17.4 6.3l3.2 2.9c-2.5 0.2-3.9 0.4-6.5 1.1l5.1 3c-3.7 0.4-6.8 0.2-8.7 3.4-3.4 0.7-4.3 1-7.4 2.7l9.2 4.2-2.8 1.4c5.6 1.9 13.5 2.3 20.8-0.6-4.3-1.9-8.7-3.3-12-6.1 10.1 2.3 20.4 6 33.6 0.6-4.2-1.2-8.6-1.7-13.3-2.1 4.2-1.3 5.6-1.3 8.7-0.1 9.5-8.1 16.2-6.1 27.2-8.4l-0.9-1.8c2.5-0.2 2.1 0 4.6-1.2-5.8-0.2-12 0.8-17.5 0l15.7-3.6c-7.8-1.3-17.1-0.8-25.4-1.5 7.9-2.4 13.4-1 20.6-0.9 11.4 0.1 27.1-0.7 39.3-5.4-10.2-0.6-21.5 2.3-31.3 0.5 8.5-3.8 21.6-4.2 27.6-10.9 11.4 0.5 26.5-5.9 38.3-10.8-7.7-0.1-15.5 1.9-22.6 0.4 9-2.4 24.8-3.2 32.3-8.8z"/>
	<path id="Layer" fill-rule="evenodd" class="s0" d="m436.1 283.3c-0.8-0.1 0.7-0.8 0.8-0.8 0.8 0.1-0.7 0.8-0.8 0.8zm32.3 81.6c2.5-1.3 2.1-1.1 4.6-1.3-2 2.1-2.4 2.1-4.6 1.3zm-45.6-77c-0.9 0 0.6-0.8 0.7-0.7 0.8 0-0.6 0.7-0.7 0.7zm40 80.7c-0.9-0.1 0.6-0.8 0.7-0.8 0.8 0.1-0.6 0.8-0.7 0.8zm-10.6-3.6c-0.9 0 0.6-0.7 0.7-0.7 0.8 0-0.6 0.8-0.7 0.7zm-37.1-66l3.2-0.5c-1.6 1.3-1.3 1-3.2 0.5zm38.9 73c-0.8-0.1 0.7-0.8 0.8-0.8 0.8 0.1-0.7 0.8-0.8 0.8zm20.4-12.5l-0.9 1.6zm-40.5-74.7l-0.9 1.6zm-2.7-2l-1 1.6zm40 77.3l-0.9 1.6zm-40.9-72.3l-0.9 1.6zm37.7 72.8l-1 1.6zm-40.4-74.7l-0.9 1.6zm37.2 75.3l-0.9 1.6zm1.8 3.5l-0.9 1.6zm-41.4-76.5l-0.9 1.6zm36.3 73.5l-0.9 1.6zm1.8 3.6l-0.9 1.6zm-40.5-74.8l-0.9 1.6zm1.4 2.7l-0.9 1.6zm-3.7-3.7l-0.9 1.6zm39.5 76.4l-0.9 1.6zm-3.2-2.9l-1 1.6zm-37.2-68.5l-0.9 1.6zm0.9 1.8l-0.9 1.6zm36.3 70.1l-0.9 1.6zm-1.9-0.2l-0.9 1.6zm-39.1-72.1l-0.9 1.6z"/>
	<path id="Layer" class="s2" d="m416.9 299.2c-1.9 1.8-2.1 2-3.2 3.9 1.6-1.6 2.1-2.2 3.2-3.9z"/>
	<path id="Layer" fill-rule="evenodd" class="s0" d="m410.5 300.3c0.5-2.3 0.5-2.1 3.2-3.9-1.2 1.9-1.4 2.2-3.2 3.9zm36.7 67.7l-0.9-1.8 2.8-1.4c0 1.8 0.2 1.5-1.9 3.2zm0.8 6c-0.8-0.1 0.7-0.8 0.8-0.8 0.8 0.1-0.7 0.8-0.8 0.8zm-4.6 1.2c-0.8-0.1 0.7-0.8 0.8-0.8 0.8 0.1-0.7 0.8-0.8 0.8zm-4.9 9.7c-2.3 1.5-3.1 2-5.6 2.9 4.3-3 8.1-4 12.9-5.6-2.7 2.5-4.2 3.2-7.3 2.7zm-43.2-83.5l4.1-2.1c-1.8 1.7-1.7 1.6-4.1 2.1zm3.2 6.2c2.5-1.3 2.1-1 4.6-1.2-2.2 1.3-2.2 1.2-4.6 1.2zm53.4 59.1l-1 1.6zm-35.8-65.9l-1 1.6zm34.1 65.7l-1 1.6zm-39.5-66.2l-0.9 1.6zm-1.9-0.2l-0.9 1.7zm-4.6-2.2l-0.9 1.6zm2.3 4.5l-1 1.6zm1 1.8l-1 1.6zm33.1 70.7l-0.9 1.6zm-41.4-73.2l-0.9 1.6z"/>
	<path id="Layer" class="s2" d="m401.7 307.1c-7 5.4-11.9 11.6-17.1 17.8 6.9-3.7 13.4-12.2 17.1-17.8z"/>
	<path id="Layer" class="s0" d="m437.1 375.5l-0.9 1.6zm-36.4-66.8l-0.9 1.6zm-4.1-4.6l-0.9 1.6z"/>
	<path id="Layer" class="s1" d="m398.9 308.5l-7.3 6.1c3.7-1.5 5.3-3.2 7.3-6.1zm38.8 77.2c-0.1 0-1.6 0.7-0.8 0.7 0.1 0.1 1.6-0.7 0.8-0.7z"/>
	<path id="Layer" class="s0" d="m398.5 311l-1 1.6zm34.1 65.7l-3.3 0.6 1 1.8c2.5-1.4 2-0.7 2.3-2.4zm-36.4-66.7l-0.9 1.6zm-4.6-5.5l-0.9 1.6zm1.8 3.5l-0.9 1.6zm0.5 4.3l-1 1.6zm38.2 73.7l-0.9 1.6zm-5.1-6.4l-0.9 1.6z"/>
	<path id="Layer" class="s1" d="m392 315.5l-0.9 1.6z"/>
	<path id="Layer" fill-rule="evenodd" class="s0" d="m390.5 317c-0.8 0-0.3 0.9-0.2 0.9 0.8 0 0.3-0.9 0.2-0.9zm-2.2 1.5l-3.2 0.6c1.9 0.4 1.6 0.7 3.2-0.6zm4.6-1.2l-0.9 1.6zm36.8 71l-0.9 1.6zm-43.3-80.1l-0.9 1.6zm2.8 5.3l-0.9 1.7zm37.7 72.8l-1 1.6zm-38.6-71.2l-0.9 1.6zm2.3 4.4l-0.9 1.6zm31.7 61.3l-0.9 1.6zm4.1 8l-0.9 1.6zm-39.1-72.1l-0.9 1.6zm2.3 4.4l-1 1.6zm34.1 65.7l-1 1.6z"/>
	<path id="Layer" class="s2" d="m386.9 319.2c-1.8 1.8-2 2-3.2 4 1.9-1.8 2.1-2 3.2-4z"/>
	<path id="Layer" class="s0" d="m387.9 321l-1 1.6zm35.4 68.4l-0.9 1.6zm-35.9-65.9l-0.9 1.6zm30.4 58.6l-1 1.6zm-37.7-69.4l-0.9 1.6zm4.3 10.5c-0.1 0-1.6 0.7-0.8 0.8 0.1 0 1.6-0.7 0.8-0.8zm34.3 64.1l-0.9 1.6zm1.4 2.7l-0.9 1.6z"/>
	<path id="Layer" class="s2" d="m385.1 325.8l-0.9 1.6z"/>
	<path id="Layer" fill-rule="evenodd" class="s0" d="m383.4 328.2c-0.1 0-0.7-0.9 0.2-0.8 0.1 0 0.6 0.9-0.2 0.8zm16.8 70.9c5.6-1.6 10.7-2.2 16.1-2.7-5.6 4.1-11.4 4.6-16.1 2.7zm-27.7-79.5c-0.8-0.1 0.7-0.8 0.8-0.8 0.8 0.1-0.7 0.8-0.8 0.8zm33.4 69c-0.1 0-0.7-0.9 0.2-0.8 0.1 0 0.6 0.9-0.2 0.8zm-42-66.4c2.2-0.6 2.9-0.6 5.1-0.4-2.5 2-3 1.5-5.1 0.4zm50.6 60.5l-0.9 1.6zm3.7 7.1l-1 1.6zm-35.4-65l-0.9 1.6zm32.7 63l-1 1.6zm-1.8-0.1l-0.9 1.6zm1.3 2.6l-0.9 1.6zm-5-6.4l-1 1.6zm3.3 6.3l-1 1.6zm-4.6-2.2l-0.9 1.7zm1.4 2.6l-0.9 1.6zm-1.9-0.2l-0.9 1.7zm-3.7-3.8l-0.9 1.6zm0.5 4.3l-1 1.6zm-3.2 0.5l-0.9 1.7z"/>
	<path id="Layer" class="s1" d="m405.7 399.6l-0.9 1.6z"/>
	<path id="Layer" class="s0" d="m364.8 323.9c-2.2 2.5-2.8 3.8-3.7 6.4 2.6-2.6 3.2-3.5 3.7-6.4zm35 67.5l-1 1.6zm1.4 2.7l-0.9 1.6z"/>
	<path id="Layer" class="s1" d="m403.1 400.2c-0.1 0-1.6 0.7-0.7 0.8 0.1 0 1.5-0.7 0.7-0.8z"/>
	<path id="Layer" class="s0" d="m396.5 392c-7.2-0.7-13.8-2-22.1 1.3 5.7 1.4 15.4 3.7 22.1-1.3z"/>
	<path id="Layer" class="s2" d="m400.2 399.1l-0.9 1.6z"/>
	<path id="Layer" class="s1" d="m400.7 400l-1 1.6z"/>
	<path id="Layer" fill-rule="evenodd" class="s0" d="m398.4 402.3c-0.4-1.5-0.4-1.8 0-3.4 0.3 1.5 0.3 1.8 0 3.4zm-39.6-66.3c0.4-2.4 0.8-3.2 2.3-5.7-0.5 2.3-0.9 3.5-2.3 5.7zm31.1 61.3c-0.8-0.1 0.7-0.8 0.8-0.8 0.8 0.1-0.7 0.8-0.8 0.8zm-4.9 2.9c0.5-2.3 0.5-2.1 3.2-3.9-1.1 1.7-1.6 2.3-3.2 3.9zm-30.9-62.1c-0.9 0 0.6-0.7 0.7-0.7 0.8 0-0.6 0.7-0.7 0.7zm-6.3-6.5c0-1.8-0.2-1.5 1.8-3.2 0 1.9 0.2 1.6-1.8 3.2zm12.4-3l-0.9 1.6zm35.8 69.2l-0.9 1.6zm-36.8-67.6l-0.9 1.6zm34 65.7l-0.9 1.6zm2.8 5.3l-1 1.6zm-37.7-69.4l-0.9 1.6zm32.7 66.4l-1 1.6zm1.9 3.6l-0.9 1.6z"/>
	<path id="Layer" class="s1" d="m353.1 336.4c-0.8-0.1-0.2 0.8-0.1 0.8 0.8 0.1 0.2-0.8 0.1-0.8zm-4.9-7.3c-6.1 4.2-9.6 8-10.6 13.4 3.6-4.4 7.6-8.9 10.6-13.4z"/>
	<path id="Layer" fill-rule="evenodd" class="s0" d="m350.5 340.3l-2.7 1.5c0-1.9-0.2-1.6 1.8-3.2zm22.5 73.9c3.9-4.1 8.2-4.2 13.4-4.7-4.2 3.7-8.3 4.2-13.4 4.7zm-29.6-79.7c-0.8 0 0.7-0.7 0.8-0.7 0.8 0-0.7 0.7-0.8 0.7zm1.1 7.7l3.2-0.5c-1.6 1.3-1.3 1-3.2 0.5zm41.4 59.7l-0.9 1.6zm-41.9-70.7l-0.9 1.6zm6 11.6l-0.9 1.6zm30.8 59.5l-1 1.6zm-35.4-65l-0.9 1.6zm0.9 1.8l-0.9 1.6zm32.7 63l-1 1.6zm-37.2-68.5l-0.9 1.6z"/>
	<path id="Layer" class="s2" d="m346.4 342.5c-1.1 1.9-1.2 2.2-1.4 4.1 1.1-2 1.1-2.2 1.4-4.1z"/>
	<path id="Layer" fill-rule="evenodd" class="s0" d="m372.9 398.2c-0.8-0.1 0.6-0.8 0.7-0.8 0.9 0.1-0.6 0.8-0.7 0.8zm-28.7-50.8c-0.1 0-0.7-0.9 0.2-0.9 0.1 0 0.6 0.9-0.2 0.9zm21 58.5c3.3-1.9 3.8-2 7.4-2.6-2.8 1.7-4.4 2.2-7.4 2.6zm-25.3-62.3c-3.5 0.2-4.2 0-3.2-2.9zm-1.4 4.1l-2.3-1 2.3-2.3 1.9 0.1c0 1.9 0.1 1.6-1.9 3.2zm3.2-10.6l-0.9 1.6zm-2.3-1.1l-0.9 1.6zm-0.9 1.6l-1 1.6zm1.4 2.7l-0.9 1.6zm34.5 70l-0.9 1.6z"/>
	<path id="Layer" class="s2" d="m339 345.2l-0.9 1.6z"/>
	<path id="Layer" class="s0" d="m368.4 408.8c1.5 1.8 1.6 1.8 4.6 2.1-1.6-1.2-2.4-1.6-4.6-2.1z"/>
	<path id="Layer" fill-rule="evenodd" class="s2" d="m369.3 407.2l-6 2c3 0.9 3.9 0.9 6-2zm-31.2-60.4l-1 1.6zm-0.9 1.6l-0.9 1.6z"/>
	<path id="Layer" class="s0" d="m337.6 349.3l-2.8 1.4 1 1.8c2-1.7 1.8-1.4 1.8-3.2z"/>
	<path id="Layer" class="s2" d="m365.7 403.5l-9.3 2.5c3.6 0.5 6.1 0.2 10.2-0.8z"/>
	<path id="Layer" class="s0" d="m363.8 403.3l-0.9 1.6zm5.5 10.6l-0.9 1.6zm-35.9-65.8l-0.9 1.6zm31.7 61.2l-0.9 1.6zm2.3 4.5l-0.9 1.6zm-38.7-71.2c-0.2 1.8 0 2.6 0.5 4.2 0.3-1.8 0.1-2.6-0.5-4.2zm34.5 66.6l-0.9 1.6zm-36.3-66.8l-0.9 1.6zm2.6 6.2c-0.9-0.1-0.3 0.8-0.2 0.8 0.8 0.1 0.3-0.8 0.2-0.8zm1.5 1.8l-0.9 1.6zm28.9 55.9l-0.9 1.7zm-32.6-59.7l-1 1.6z"/>
	<path id="Layer" class="s2" d="m330.2 352c-2 1.6-1.8 1.3-1.8 3.2 2-1.7 1.8-1.4 1.8-3.2z"/>
	<path id="Layer" fill-rule="evenodd" class="s0" d="m327 359.3c0.3-2.6 0.2-2.5 2.8-4.8-0.9 2-1.3 2.8-2.8 4.8zm25.7 49.7c2.2-0.6 2.9-0.6 5.1-0.4-2.4 2.1-3 1.6-5.1 0.4zm3.7 13.9c2.2-0.6 2.9-0.6 5.1-0.4-2.5 2-3 1.5-5.1 0.4zm-9.2-17.8l4.2 1.2c-3 2-4.2 1.1-4.2-1.2zm6.5 12.4c-5.1-1.3-9.1-2.8-12-6.1l13.3 2c-0.3 1.8-0.5 2.4-1.3 4.1zm-1.6 1.6c-0.8-0.1 0.7-0.8 0.8-0.8 0.8 0.1-0.7 0.8-0.8 0.8zm-21.4-66.2l-0.9 1.6zm27.6 53.2l-1 1.7zm-30.8-56.2l-0.9 1.6zm-1.4 4.1l-0.9 1.6z"/>
	<path id="Layer" class="s1" d="m356.4 422.9l-0.9 1.6z"/>
	<path id="Layer" fill-rule="evenodd" class="s0" d="m319.5 356c-0.8 0-0.3 0.9-0.2 0.9 0.8 0 0.3-0.9 0.2-0.9zm34.6 65.8c-2.5 0.2-2.1 0-4.6 1.3-1-2.1-0.6-2-4.1-1.3 3 1 5.6 3.3 8.7 0zm-32.6-63l-1 1.6zm1 1.7l-1 1.6z"/>
	<path id="Layer" class="s1" d="m354.6 422.7l-0.9 1.6z"/>
	<path id="Layer" class="s0" d="m317.3 354.1l-0.9 1.7zm-2.9-1.2c-0.8 0-0.3 0.9-0.2 0.9 0.9 0 0.3-0.9 0.2-0.9z"/>
	<path id="Layer" class="s1" d="m350.4 421.5l-0.9 1.6z"/>
	<path id="Layer" class="s0" d="m312.7 352l-0.9 1.6z"/>
	<path id="Layer" class="s1" d="m348.6 421.3l-0.9 1.6z"/>
	<path id="Layer" fill-rule="evenodd" class="s0" d="m311.3 359.5c-0.3-1.5-0.3-1.8 0-3.4 0.4 1.5 0.4 1.8 0 3.4zm29 69.5c2.6-0.7 3.9-0.9 6.4-1.1-2.9 1.7-3.6 1.4-6.4 1.1zm-30.2-66.2c-0.1 0-0.7-0.9 0.2-0.9 0.1 0 0.6 0.9-0.2 0.9zm32.6 63c-0.1 0-0.6-0.9 0.2-0.8 0.1 0 0.7 0.9-0.2 0.8zm-5.6-3l-2.8-2c2.4 0.4 2.5 0.1 2.8 2zm-26.2-70.9l-0.9 1.6zm34.4 66.6l-0.9 1.6zm-37.7-66.1l-0.9 1.6zm1.4 2.7l-1 1.6zm2.3 4.4l-0.9 1.6zm-4.1-4.6l-0.9 1.6zm-2.8-1.9l-0.9 1.6zm0.9 1.7l-0.9 1.7zm32.1 62.1l-0.9 1.6zm-34.9-64.1l-0.9 1.6zm6.4 12.4l-0.9 1.7zm-1 1.6l-0.9 1.6z"/>
	<path id="Layer" class="s1" d="m336.1 421l-0.9 1.6z"/>
	<path id="Layer" class="s0" d="m339.8 428.1l-0.9 1.6zm-39.5-73l-1 1.6zm6.9 13.3l-0.9 1.6z"/>
	<path id="Layer" class="s1" d="m326.9 416.7l4.6 2.2c-0.5-2.3-1.4-2.4-4.6-2.2z"/>
	<path id="Layer" class="s0" d="m337.5 427l-0.9 1.6z"/>
	<path id="Layer" class="s1" d="m338 427.9l-0.9 1.6z"/>
	<path id="Layer" class="s0" d="m306.3 370l-1 1.6zm29 56l-0.9 1.6z"/>
	<path id="Layer" class="s1" d="m319.6 412.7c-2.5 1.3-2.1 1.1-3.7 3l-6.9-3.2c-1.9 5.4 1.8 8.6 3.2 13 2.5-3.2 2.3-4.7 1.4-7.5 8.6 2.8 13.6 8.2 21.6 11.3-0.9-6.4-10.5-12.4-15.6-16.6z"/>
	<path id="Layer" fill-rule="evenodd" class="s0" d="m301 374.6c-0.8-0.1 0.7-0.8 0.8-0.8 0.8 0.1-0.7 0.8-0.8 0.8zm26.4 53.2c-1.5-1.9-3-2.9-5.5-3.9 0.7-2.1 0.4-1.8 1.8-3.2 2.3 2.1 4 3.8 3.7 7.1zm-33.6-54.7l4.2-2.2c-1.9 1.8-1.7 1.7-4.2 2.2zm-2.4-0.2c-0.9-0.1 0.6-0.8 0.7-0.8 0.8 0.1-0.6 0.8-0.7 0.8zm26.3 46.4c-2.2-0.3-2.5-0.4-4.1-1.3 2.2 0.3 2.4 0.3 4.1 1.3zm-4.1 5.5l0.9-1.6c2.2-0.6 2.9-0.6 5.1-0.4-2.6 1.9-3.1 2-6 2zm-2.3 2.3l4.6-1.3c-2.1 2.2-2.5 2.2-4.6 1.3zm-26.3-47.2l4.7-1.3c-2.1 2.1-2.5 2.1-4.7 1.3zm7.9 4.9c-3.1 1.3-3.9 1.6-6.5 1.1 3.3-1.1 1.7-1.3 4.6-4.6zm-10.1 0.7v-3.4l5.1-0.3c-1.6 1.5-3.1 2.5-5.1 3.7zm49.7 41.8l-0.9 1.6zm-2.3-1l-0.9 1.6zm-30.4-55.2l-0.9 1.6zm-0.5 2.5l-0.9 1.6zm0.9 1.7l-0.9 1.6zm-10.6-0.1l-0.9 1.6z"/>
	<path id="Layer" class="s1" d="m285.5 384.1c1.7 1 1.9 1 4.1 1.3-1.5-1.6-1.2-1.7-4.1-1.3z"/>
	<path id="Layer" class="s2" d="m285 383.3c-1.3 3.3-0.7 5 0.5 7.6 1.4-3.3 0.8-5-0.5-7.6z"/>
	<path id="Layer" class="s1" d="m300.2 412.6l-2.7 1.4 4.5 12.2c3.5-5.7 0.4-9.4-1.8-13.6zm-20.2-35.7l-0.9 1.6z"/>
	<path id="Layer" class="s0" d="m286.9 390.2l-0.9 1.6zm-8.5-11.8c-0.8-0.1-0.2 0.8-0.1 0.8 0.8 0.1 0.2-0.8 0.1-0.8zm2 2.7l-0.9 1.6zm2.8 5.4c-0.3 2.1 0.1 3.3 0.9 5.1 0.2-2.1-0.2-3.3-0.9-5.1z"/>
	<path id="Layer" class="s1" d="m302 426.2c-0.2 2.8 0.7 3.7 2.8 5.4-0.1-2.4-1.2-3.6-2.8-5.4z"/>
	<path id="Layer" class="s0" d="m286.9 396.9l-1 1.6z"/>
	<path id="Layer" class="s1" d="m297.4 417.4c-5.8 8.5-9.9 16.8-1.4 21-0.7-2.2-2.8-3.9-2.7-6.5 0.3-5 4.9-9.6 4.1-14.5z"/>
	<path id="Layer" fill-rule="evenodd" class="s0" d="m280 393.8c-1.9-3.6-4.6-7-4.2-11.4 1.9 3.5 4.6 7 4.2 11.4zm2.9 4.5c-0.1 0-0.7-0.9 0.1-0.9 0.1 0 0.7 0.9-0.1 0.9zm13.1 40.1l7.9-1.8c-3.2 2.3-4.5 2.1-7.9 1.8zm-12.8-35c-3.5 1.8-6.5 3.3-10.2 4.1 2.5-1.5 4.3-2.5 7-3.6l-6-4.8 6-2zm13.8 19.9l-1 1.6zm-0.9 1.6l-0.9 1.6zm-0.9 1.6l-1 1.6z"/>
	<path id="Layer" class="s2" d="m280 400.5l-1 1.6z"/>
	<path id="Layer" class="s0" d="m289.6 419.2l-2.8 1.4 1 1.8 2.7-1.5zm4.6 8.9l-0.9 1.6z"/>
	<path id="Layer" class="s1" d="m262.9 404.8c7.2-3.9 10.5-0.9 17.1-0.9-3-3.6-13-7.2-17.1 0.9zm19.3 13.7c2.2 1 3.1 1.3 6 1.4-2-1.3-2.8-1.7-6-1.4z"/>
	<path id="Layer" class="s0" d="m293.3 429.7l-0.9 1.6zm3.2 6.2l-0.9 1.6zm-3.7-3.7c-0.4 1.6-0.3 1.9 0 3.3 0.3-1.6 0.3-1.9 0-3.3zm2.7 5.3l-0.9 1.6z"/>
	<path id="Layer" class="s2" d="m263.4 405.7c4.3 1.8 7.8 2 13.8-0.4-4.1-2.8-7.5-4.1-13.8 0.4z"/>
	<path id="Layer" fill-rule="evenodd" class="s0" d="m270.7 413.2l5.6-2.9c-2.1 1.9-2.8 2.3-5.6 2.9zm-5.2-12.3c-0.8-0.1 0.7-0.8 0.8-0.8 0.8 0.1-0.7 0.8-0.8 0.8zm-1.7 2.3l4.2-2.1c-1.9 1.7-1.7 1.6-4.2 2.1zm0.9 1.8l-2.3 2.3-1.3-2.6c2.5-0.7 2.1-0.7 3.6 0.3zm0.2 2.6c-0.1 0-0.7-0.9 0.2-0.9 0.1 0 0.6 0.9-0.2 0.9zm-4.8 12.2l4.2-2.1c-1.9 1.7-1.7 1.6-4.2 2.1zm-12 7.3l5.6-2.8c-2.1 1.9-2.8 2.2-5.6 2.8zm-8 6c-0.8 0 0.7-0.7 0.8-0.7 0.8 0.1-0.7 0.8-0.8 0.7zm-15.9 8.7l6.9-3.6c-2.4 2.2-3.7 2.9-6.9 3.6zm-6.6 5.3c-0.9-0.1 0.6-0.8 0.7-0.8 0.8 0.1-0.6 0.8-0.7 0.8zm-9.3 5.9c-0.8-0.1 0.7-0.8 0.8-0.8 0.8 0.1-0.7 0.8-0.8 0.8zm-0.4 12.6c-0.9 0 0.6-0.8 0.7-0.7 0.8 0-0.6 0.7-0.7 0.7zm-8.8-6.7c-0.8-0.1 0.7-0.8 0.8-0.8 0.8 0.1-0.7 0.8-0.8 0.8zm2.5 10.4l4.1-2.2c-1.8 1.7-1.7 1.7-4.1 2.2zm-7.6-6.7c-0.8 0 0.7-0.7 0.8-0.7 0.8 0.1-0.7 0.8-0.8 0.7zm-14.6 18.1l18.5-11.8c-4.1 5.3-11.4 10.3-18.5 11.8zm15.7-7l4.2-2.1c-1.9 1.7-1.7 1.6-4.2 2.1zm-6.1-7.3c-0.9-0.1 0.6-0.8 0.7-0.8 0.9 0.1-0.6 0.8-0.7 0.8zm0.9 11.9c-0.8-0.1 0.6-0.8 0.7-0.8 0.9 0.1-0.6 0.8-0.7 0.8zm-7.4-7.4c-0.8-0.1 0.7-0.8 0.8-0.8 0.8 0.1-0.7 0.8-0.8 0.8zm-7.2 15.4l11-5.8c-3.3 3-6.7 4.8-11 5.8zm0.9-11.8l4.2-2.1c-1.9 1.7-1.7 1.6-4.2 2.1zm-4.6 11.4l4.1-2.1c-1.8 1.7-1.6 1.6-4.1 2.1zm118.9-54.8l-0.9 1.6zm2.8 5.3l-1 1.6zm-16.1-27.7l-0.9 1.6zm-6.9-9.9l-0.9 1.6zm0.9 1.8l-0.9 1.6zm4.1 8l-0.9 1.6zm-1.8-0.2l-1 1.6zm-2.7-1.9l-0.9 1.6zm-2.8 1.4l-0.9 1.6zm-96.9 80.5l-0.9 1.6zm-5.1-6.3l-0.9 1.6zm-0.5 2.4l-0.9 1.7zm1.9 3.5l-1 1.6z"/>
</svg>