<?xml version="1.0" encoding="iso-8859-1"?>
<!-- Generator: Adobe Illustrator 23.0.2, SVG Export Plug-In . SVG Version: 6.00 Build 0)  -->
<svg version="1.1" id="_x32_4_fragile" xmlns="http://www.w3.org/2000/svg" xmlns:xlink="http://www.w3.org/1999/xlink" x="0px"
	 y="0px" viewBox="0 0 3872.983 3872.983" style="enable-background:new 0 0 3872.983 3872.983;" xml:space="preserve">
<path fill="#fff" d="M3365.395,2738.426h-597.806V1279.501h319.054c23.591,0,44.858-14.21,53.886-36.002c9.022-21.797,4.032-46.88-12.644-63.563
	l-494.882-494.882c-22.782-22.771-59.701-22.771-82.483,0l-494.882,494.882c-16.677,16.682-21.666,41.766-12.644,63.563
	c9.027,21.791,30.295,36.002,53.886,36.002h291.613v1458.924h-931.441V1279.501h319.054c23.591,0,44.858-14.21,53.886-36.002
	c9.022-21.797,4.032-46.88-12.644-63.563l-494.882-494.882c-22.782-22.771-59.701-22.771-82.483,0l-494.882,494.882
	c-16.677,16.682-21.666,41.766-12.644,63.563c9.027,21.791,30.295,36.002,53.886,36.002h291.613v1458.924H507.589
	c-32.208,0-58.323,26.114-58.323,58.323v349.935c0,32.208,26.114,58.323,58.323,58.323h2857.806
	c32.208,0,58.323-26.114,58.323-58.323v-349.935C3423.717,2764.54,3397.603,2738.426,3365.395,2738.426z M2446.814,1162.856
	h-209.135L2591.76,808.78l354.082,354.076h-236.576c-32.208,0-58.323,26.114-58.323,58.323v1517.247h-145.806V1221.179
	C2505.137,1188.97,2479.023,1162.856,2446.814,1162.856z M1136.276,1162.856H927.141l354.082-354.076l354.082,354.076h-236.577
	c-32.208,0-58.323,26.114-58.323,58.323v1517.247h-145.807V1221.179C1194.599,1188.97,1168.485,1162.856,1136.276,1162.856z
	 M3307.072,3088.361H565.911v-233.29h570.365h262.452h1048.086h262.452h597.806V3088.361z"/>
</svg>
